<?xml version="1.0" standalone="no"?><!DOCTYPE svg PUBLIC "-//W3C//DTD SVG 1.1//EN" "http://www.w3.org/Graphics/SVG/1.1/DTD/svg11.dtd"><svg t="1708587627270" class="icon" viewBox="0 0 1024 1024" version="1.1" xmlns="http://www.w3.org/2000/svg" p-id="1619" data-spm-anchor-id="a313x.manage_type_myprojects.0.i6.25e83a81tUsknp" xmlns:xlink="http://www.w3.org/1999/xlink" width="200" height="200"><path d="M511.9091 62c-248.4774 0-449.9091 201.4317-449.9091 449.9118 0 248.4747 201.4317 449.9064 449.9091 449.9064s449.9064-201.4317 449.9064-449.9064C961.8155 263.4317 760.3865 62 511.9091 62zM470.1932 736.1576c-114.9885 0-232.5267-55.7262-232.5267-147.384 0-47.9187 30.3588-103.3317 82.6425-155.6262 69.8121-69.7932 151.2243-101.5857 181.8423-70.9488 13.5099 13.4901 14.8176 36.8676 6.1344 64.7694-4.5261 14.0562 13.1922 6.273 13.1922 6.3036 56.4282-23.625 105.6582-25.0173 123.651 0.693 9.6021 13.7007 8.6832 32.9121-0.1665 55.1763-4.0932 10.2564 1.2591 11.8458 9.0648 14.1894 31.7952 9.8568 67.1823 33.6978 67.1823 75.7098C721.2086 648.575 620.936 736.1576 470.1932 736.1576zM678.365 444.7187c3.7188-11.4894 1.3887-24.5853-7.281-34.1955-8.6616-9.5913-21.4623-13.2309-33.2676-10.7352l0-0.0207c-9.8469 2.1429-19.5534-4.1778-21.6648-14.0157-2.1168-9.8793 4.1742-19.5939 14.0445-21.6972 24.1497-5.1345 50.3127 2.331 68.0292 21.987 17.7543 19.6533 22.5018 46.4256 14.913 69.9111-3.0978 9.6156-13.3983 14.85-23.0004 11.7765-9.5994-3.1077-14.8491-13.4208-11.7549-23.0103L678.365 444.7187zM784.8233 479.0978c-0.0063 0.0189-0.0063 0.0612-0.0063 0.0819-3.6126 11.1393-15.5835 17.2395-26.7183 13.6341-11.1789-3.609-17.2872-15.5538-13.6791-26.7201l-0.0063-0.0072c11.0736-34.2783 4.0509-73.3815-21.8034-102.0492-25.8777-28.6704-64.0341-39.6216-99.2925-32.1345-11.4687 2.4453-22.7466-4.8753-25.1919-16.3323-2.4552-11.4471 4.8555-22.7295 16.3242-25.1838l0.0207 0c49.5603-10.5372 103.2552 4.8483 139.6593 45.2088C790.5437 375.9137 800.3591 430.8803 784.8233 479.0978zM624.9716 570.2822c-5.9481-60.2181-85.1571-101.6946-176.9229-92.6217-91.746 9.0729-161.3214 65.2491-155.3616 125.4789 5.9607 60.2451 85.1661 101.7216 176.922 92.6667C561.3767 686.7278 630.9224 630.5462 624.9716 570.2822zM528.5546 619.7273c-18.7254 42.3549-72.5859 64.9359-118.2789 50.1993-44.1153-14.238-62.7912-57.7944-43.4763-97.0326 18.9648-38.4714 68.3154-60.2316 111.978-48.8727C523.9646 535.7006 547.0235 578.3273 528.5546 619.7273zM435.1877 587.4614c-14.2074-5.9562-32.5737 0.1683-41.3415 13.9167-8.8758 13.8078-4.7115 30.2517 9.3969 36.6759 14.3136 6.5358 33.318 0.3312 42.1947-13.8285C454.1525 609.9263 449.5634 593.5886 435.1877 587.4614zM470.2067 572.9435c-5.4522-2.1636-12.2688 0.4554-15.4656 5.8185-3.1059 5.3901-1.3923 11.529 4.0716 13.7772 5.5584 2.2878 12.6522-0.3537 15.8616-5.8374C477.737 581.1758 475.7462 574.9694 470.2067 572.9435z" fill="#cdcdcd" p-id="1620"></path></svg>