<?xml version="1.0" standalone="no"?><!DOCTYPE svg PUBLIC "-//W3C//DTD SVG 1.1//EN" "http://www.w3.org/Graphics/SVG/1.1/DTD/svg11.dtd"><svg t="1708587593055" class="icon" viewBox="0 0 1024 1024" version="1.1" xmlns="http://www.w3.org/2000/svg" p-id="1428" xmlns:xlink="http://www.w3.org/1999/xlink" width="200" height="200"><path d="M512 62C262.76923057 62 62 262.76923057 62 512s200.76923057 450 450 450 450-200.76923057 450-450S761.23076943 62 512 62z m218.07692315 321.92307685c-3.46153886 3.46153886-3.46153886 6.92307685-6.92307687 6.92307686-6.92307685 6.92307685-13.84615371 10.38461572-20.76923055 13.84615371-3.46153886 0-3.46153886 3.46153886-3.46153888 6.92307686 3.46153886 38.07692315-3.46153886 76.15384628-17.30769257 114.23076943-24.23076943 65.76923057-76.15384628 117.69230742-138.461538 148.84615371-51.92307685 31.15384629-114.23076943 41.53846114-169.61538515 27.69230831-27.69230742-3.46153886-51.92307685-13.84615371-72.69230741-27.69230831l-3.461538-3.46153799c0-3.46153886 3.46153886-6.92307685 6.92307686-6.92307685 17.30769258 0 34.61538427-3.46153886 51.92307685-10.38461573 17.30769258-6.92307685 34.61538427-17.30769258 48.46153799-27.69230742l3.46153887-3.46153886c0-3.46153886 0-6.92307685-3.46153887-6.92307686-13.84615371-3.46153886-24.23076943-10.38461572-34.61538427-17.30769258-13.84615371-6.92307685-24.23076943-20.76923057-31.1538463-34.61538428v-3.46153799c0-3.46153886 3.46153886-6.92307685 6.92307687-6.92307773h10.38461571c3.46153886 0 3.46153886 0 3.46153799-3.46153798 3.46153886-3.46153886 0-6.92307685-3.46153799-10.38461573-13.84615371-6.92307685-24.23076943-17.30769258-34.61538515-27.69230742-13.84615371-13.84615371-20.76923057-31.15384629-20.76923056-48.46153887v-3.46153798c0-3.46153886 6.92307685-3.46153886 6.92307685-3.46153887 3.46153886 0 6.92307685 3.46153886 10.38461571 3.46153887h6.92307687c3.46153886 0 3.46153886 0 6.92307685-3.46153887s3.46153886-6.92307685 0-10.38461485c-13.84615371-13.84615371-24.23076943-31.15384629-27.69230742-51.92307685-3.46153886-17.30769258 0-38.07692315 6.92307685-55.38461573v-3.46153799c-6.92307685 3.46153886-3.46153886 3.46153886 0 6.92307687 24.23076943 24.23076943 48.46153886 45 79.61538429 62.30769169 34.61538427 17.30769258 72.69230742 27.69230742 110.76923056 27.69230831 3.46153886 0 6.92307685-3.46153886 6.92307686-6.92307687 0-20.76923057 6.92307685-90 69.23076943-107.30769258 31.15384629-10.38461572 69.23076943-3.46153886 93.46153886 24.23076945 0 0 3.46153886 3.46153886 6.92307686 3.46153798 6.92307685 0 13.84615371-3.46153886 24.23076944-3.46153798 6.92307685-3.46153886 13.84615371-3.46153886 20.76923056-6.92307687h6.92307686c3.46153886 0 3.46153886 6.92307685 3.46153799 10.38461485-3.46153886 6.92307685-10.38461572 13.84615371-17.30769171 20.76923057l-3.46153886 3.46153887c-3.46153886 0-3.46153886 3.46153886-3.46153799 6.92307685s3.46153886 6.92307685 6.92307685 6.92307685 6.92307685 0 13.84615372-3.46153799h6.92307685c-3.46153886-3.46153886-3.46153886 3.46153886-6.92307685 3.46153799z" fill="#cdcdcd" p-id="1429"></path></svg>